# xmcd
#
# Track frame offsets: 
#        150
#        18750
#        30206
#        57356
#        71156
#
# Disc length: 1096 seconds
#
# Revision: 0
# Processed by: cddbd v1.5.2PL0 Copyright (c) Steve Scherf et al.
# Submitted via: ExactAudioCopy v1.2
#
DISCID=35044605
DTITLE=Blueswater - Around Here EP
DYEAR=1900
DGENRE=Bluesrock
TTITLE0=Alabama Train
TTITLE1=Whisky
TTITLE2=Build For Pain
TTITLE3=Around Here
TTITLE4=Better Apart (The Tea Ditty)
EXTD=
EXTT0=
EXTT1=
EXTT2=
EXTT3=
EXTT4=
PLAYORDER=
